<?xml version="1.0" standalone="no"?>
<!DOCTYPE svg PUBLIC "-//W3C//DTD SVG 20010904//EN"
 "http://www.w3.org/TR/2001/REC-SVG-20010904/DTD/svg10.dtd">
<svg version="1.0" xmlns="http://www.w3.org/2000/svg"
 width="1200.000000pt" height="1200.000000pt" viewBox="0 0 1200.000000 1200.000000"
 preserveAspectRatio="xMidYMid meet">
<metadata>
Created by potrace 1.11, written by Peter Selinger 2001-2013
</metadata>
<g transform="translate(0.000000,1200.000000) scale(0.100000,-0.100000)"
fill="#000000" stroke="none">
<path d="M4797 10744 c-1 -1 -22 -5 -46 -9 -76 -11 -198 -54 -261 -92 -78 -46
-159 -135 -199 -216 -69 -141 -64 73 -65 -2874 0 -1464 3 -2665 7 -2669 4 -4
83 -9 175 -11 741 -13 1139 -21 1402 -28 113 -3 324 -7 470 -9 146 -3 373 -8
505 -11 132 -4 335 -8 450 -10 484 -10 771 -15 955 -20 107 -3 321 -7 475 -9
154 -3 386 -8 515 -11 645 -16 779 -18 821 -16 l27 1 -3 2603 c-1 1431 -4
2613 -8 2627 -3 14 -8 36 -11 50 -9 42 -48 140 -57 146 -5 3 -9 12 -9 21 0 35
-149 205 -192 219 -10 3 -18 9 -18 14 0 9 -136 64 -185 74 -16 4 -41 9 -55 12
-14 3 -74 7 -135 9 -106 4 -247 11 -425 20 -47 3 -134 7 -195 9 -60 3 -164 8
-230 11 -66 4 -154 8 -195 10 -186 8 -370 17 -430 21 -36 2 -128 6 -205 8 -77
3 -180 8 -230 11 -112 7 -269 14 -400 19 -55 2 -152 7 -215 11 -63 4 -164 8
-225 10 -60 2 -157 6 -215 10 -156 9 -280 15 -420 20 -69 3 -165 7 -215 10
-49 3 -142 8 -205 10 -63 3 -155 7 -205 9 -270 15 -340 18 -438 20 -60 1 -109
1 -110 0z m1343 -2163 c180 -62 307 -192 366 -375 38 -119 36 -234 -6 -353
-70 -200 -254 -352 -455 -378 -27 -3 -58 -7 -68 -9 -17 -2 -103 8 -153 18 -38
8 -148 58 -183 84 -184 132 -275 345 -241 561 28 181 146 340 311 420 46 22
107 44 134 49 83 16 222 7 295 -17z m2661 0 c322 -103 486 -485 337 -786 -38
-78 -69 -120 -132 -177 -224 -207 -570 -197 -786 23 -110 111 -168 257 -165
410 4 149 59 280 164 388 69 70 165 126 266 154 73 21 233 15 316 -12z"/>
<path d="M3935 10454 c-66 -34 -221 -117 -257 -139 -9 -5 -47 -27 -85 -49
-317 -179 -599 -403 -683 -543 l-35 -57 -1 -556 -1 -555 31 -36 c61 -70 78
-95 116 -175 33 -67 87 -211 94 -249 1 -5 5 -19 9 -30 3 -11 8 -31 11 -45 2
-14 9 -45 15 -70 45 -196 68 -572 47 -780 -3 -36 -8 -90 -11 -120 -2 -30 -7
-66 -10 -80 -2 -14 -7 -45 -10 -70 -8 -56 -34 -180 -40 -189 -2 -4 -7 -21 -9
-38 -8 -43 -45 -162 -62 -200 -8 -17 -14 -34 -14 -37 0 -18 -81 -173 -124
-235 l-51 -75 3 -100 c1 -56 4 -382 5 -726 2 -618 2 -625 22 -625 11 0 52 5
90 13 39 7 84 15 100 17 17 3 50 10 75 15 45 10 74 15 140 26 19 3 55 10 80
15 25 5 57 11 72 14 15 2 55 9 90 16 35 6 72 13 83 14 11 2 36 6 55 10 19 4
69 13 110 20 41 8 86 17 100 20 14 3 41 8 60 11 56 8 68 14 72 32 3 15 3 5526
-1 5575 -1 23 -5 22 -86 -19z"/>
<path d="M2653 8299 c-41 -20 -103 -75 -103 -90 0 -4 -6 -14 -14 -22 -36 -36
-123 -257 -141 -358 -3 -18 -8 -35 -10 -38 -5 -9 -13 -68 -32 -231 -8 -74 -8
-390 1 -465 11 -101 15 -129 21 -155 3 -14 8 -41 11 -60 6 -36 41 -164 51
-190 4 -8 7 -17 8 -20 32 -92 93 -192 150 -243 33 -30 116 -59 143 -50 74 24
117 59 172 138 53 77 102 203 136 350 22 96 23 103 30 165 3 30 9 71 13 90 8
40 6 439 -3 515 -6 56 -39 227 -56 294 -16 67 -69 189 -106 248 -82 129 -173
170 -271 122z"/>
<path d="M3939 4666 c-3 -3 -27 -8 -54 -12 -28 -3 -59 -8 -70 -10 -10 -2 -37
-6 -60 -9 -22 -3 -51 -8 -65 -10 -14 -2 -45 -7 -70 -10 -25 -3 -97 -15 -160
-25 -63 -10 -137 -22 -165 -25 -54 -7 -86 -12 -125 -20 -14 -3 -45 -7 -70 -10
-25 -3 -52 -7 -60 -10 -8 -2 -37 -7 -65 -10 -90 -9 -105 -15 -106 -38 -3 -46
0 -149 4 -154 8 -7 125 -2 277 12 30 3 91 7 135 10 44 2 114 7 155 10 41 4
100 8 130 11 30 2 91 6 135 9 44 2 112 7 150 10 39 4 90 8 114 10 24 2 47 8
50 14 5 8 7 197 2 249 -1 11 -72 18 -82 8z"/>
<path d="M4268 4659 c-13 -8 -19 -242 -5 -255 4 -4 87 -9 185 -10 97 -2 269
-5 382 -9 113 -3 291 -8 395 -10 105 -2 289 -7 410 -10 429 -13 513 -15 745
-19 129 -3 323 -8 430 -11 107 -4 272 -8 365 -10 226 -5 614 -15 800 -20 83
-2 267 -7 410 -10 143 -3 334 -7 425 -10 91 -3 239 -8 330 -10 91 -2 278 -7
415 -10 411 -11 445 -11 456 -4 17 10 31 220 16 235 -4 4 -69 9 -144 10 -293
7 -544 14 -693 19 -85 3 -234 7 -330 10 -96 2 -258 7 -360 10 -294 10 -422 14
-625 19 -104 3 -269 8 -365 11 -96 4 -238 8 -315 10 -337 9 -560 16 -700 20
-82 3 -233 7 -335 9 -102 3 -264 7 -360 11 -182 7 -341 12 -640 20 -96 2 -251
7 -345 10 -288 10 -534 12 -547 4z"/>
<path d="M2612 4188 c-160 -32 -251 -78 -342 -171 -33 -33 -60 -65 -60 -71 0
-5 -6 -17 -13 -25 -20 -23 -55 -117 -68 -181 -9 -40 -12 -497 -14 -1645 0
-875 0 -1595 2 -1601 3 -8 1340 -11 4709 -11 4497 0 4706 1 4712 18 9 22 7
3119 -1 3174 -15 100 -67 212 -128 273 -54 55 -145 99 -241 118 -18 3 -168 8
-333 10 -165 2 -428 6 -585 9 -157 3 -438 7 -625 10 -453 6 -1067 15 -1405 20
-151 3 -450 7 -665 9 -214 3 -541 8 -725 11 -184 4 -468 8 -630 10 -676 9
-1131 16 -1380 20 -146 3 -449 7 -675 10 -532 5 -1013 14 -1145 21 -235 11
-302 10 -388 -8z"/>
<path d="M1440 3998 c-30 -4 -78 -12 -106 -18 -28 -6 -64 -13 -80 -16 -92 -16
-397 -142 -424 -174 -3 -3 -21 -16 -40 -28 -51 -31 -128 -99 -192 -170 -83
-90 -173 -257 -204 -377 -9 -33 -13 -2724 -4 -2727 3 -1 351 -2 773 -3 573 -1
772 1 780 10 18 17 15 3137 -3 3220 -32 151 -116 255 -227 281 -41 10 -210 11
-273 2z"/>
</g>
</svg>
